<?xml version="1.0" encoding="utf-8"?>
<!-- Generator: Adobe Illustrator 19.0.0, SVG Export Plug-In . SVG Version: 6.00 Build 0)  -->
<svg version="1.1" id="Layer_1" xmlns="http://www.w3.org/2000/svg" xmlns:xlink="http://www.w3.org/1999/xlink" x="0px" y="0px"
	 viewBox="0 0 60 30" style="enable-background:new 0 0 60 30;" xml:space="preserve">
<style type="text/css">
	.st0{fill:#676767;}
	.st1{fill:#231F20;}
	.st2{fill:#FFFFFF;stroke:#FFFFFF;stroke-miterlimit:10;}
</style>
<g id="XMLID_12_">
	<path id="XMLID_2_" class="st0" d="M17.2,5l0.9,0.1c0.6,0.1,1,0.6,0.9,1.2l-4.4,23c-0.1,0.5-0.7,0.9-1.3,0.8L12.4,30
		c-0.6-0.1-1-0.6-0.9-1.2l4.4-23C16,5.3,16.6,4.9,17.2,5z"/>
	<path id="XMLID_3_" class="st0" d="M17.2,5.2l-0.7,0.5C16,5.9,15.8,6.6,16.2,7l13,17.5c0.3,0.5,1,0.6,1.5,0.3l0.7-0.5
		c0.5-0.3,0.6-0.9,0.3-1.4l-13-17.5C18.4,5,17.7,4.9,17.2,5.2z"/>
</g>
<g id="XMLID_1_">
	<path id="XMLID_4_" class="st0" d="M42,5.1l-0.9,0.1c-0.6,0.1-1,0.6-0.9,1.2l4.4,23c0.1,0.5,0.7,0.9,1.3,0.8l0.9-0.1
		c0.6-0.1,1-0.6,0.9-1.2l-4.4-23C43.2,5.3,42.6,5,42,5.1z"/>
	<path id="XMLID_5_" class="st0" d="M42,5.2l0.7,0.5C43.3,6,43.4,6.6,43,7.1L30,24.5c-0.3,0.5-1,0.6-1.5,0.3l-0.7-0.5
		c-0.5-0.3-0.6-0.9-0.3-1.4l13-17.5C40.9,5,41.5,4.9,42,5.2z"/>
</g>
<g id="XMLID_6_">
	<path id="XMLID_10_" class="st1" d="M22.3,1.8l0.5,0.1c0.3,0,0.5,0.3,0.5,0.6L20,18.1c-0.1,0.3-0.4,0.5-0.7,0.4l-0.5-0.1
		c-0.3,0-0.5-0.3-0.5-0.6l3.2-15.6C21.7,1.9,22,1.7,22.3,1.8z"/>
	<path id="XMLID_9_" class="st1" d="M22.3,1.8L21.9,2c-0.3,0.2-0.3,0.5-0.2,0.7l7,8.8c0.2,0.2,0.6,0.3,0.8,0.1l0.4-0.2
		c0.3-0.2,0.3-0.5,0.2-0.7l-7-8.8C22.9,1.7,22.5,1.7,22.3,1.8z"/>
	<path id="XMLID_8_" class="st1" d="M36.3,1.8l-0.5,0.1c-0.3,0-0.5,0.3-0.5,0.6l3.2,15.6c0.1,0.3,0.4,0.5,0.7,0.4l0.5-0.1
		c0.3,0,0.5-0.3,0.5-0.6L37,2.2C37,1.9,36.6,1.7,36.3,1.8z"/>
	<path id="XMLID_7_" class="st1" d="M36.3,1.8L36.7,2C37,2.2,37,2.5,36.9,2.7l-7,8.8c-0.2,0.2-0.6,0.3-0.8,0.1l-0.4-0.2
		c-0.3-0.2-0.3-0.5-0.2-0.7l7-8.8C35.7,1.7,36.1,1.7,36.3,1.8z"/>
</g>
<polygon id="XMLID_14_" class="st2" points="37.7,11.9 37.3,11.5 37.3,11 37.7,10.7 38.3,10.7 38.8,11 38.8,11.5 38.3,11.9 "/>
<polygon id="XMLID_15_" class="st2" points="20.5,11.2 20.1,10.9 20.1,10.3 20.5,10 21.1,10 21.5,10.3 21.5,10.9 21.1,11.2 "/>
</svg>
