<?xml version="1.0" encoding="utf-8"?>
<!-- Generator: Adobe Illustrator 19.0.0, SVG Export Plug-In . SVG Version: 6.00 Build 0)  -->
<svg version="1.1" id="Layer_1" xmlns="http://www.w3.org/2000/svg" xmlns:xlink="http://www.w3.org/1999/xlink" x="0px" y="0px"
	 viewBox="0 0 60 30" style="enable-background:new 0 0 60 30;" xml:space="preserve">
<style type="text/css">
	.st0{fill:#4E4E4E;}
	.st1{fill:#010101;}
</style>
<g id="XMLID_11_">
	<g id="XMLID_1_">
		<path id="XMLID_2_" class="st0" d="M15.9,4.4l0.8,0.1c0.5,0.1,0.9,0.6,0.8,1.2l-4,23.1c-0.1,0.5-0.6,0.9-1.2,0.8l-0.8-0.1
			c-0.5-0.1-0.9-0.6-0.8-1.2l4-23.1C14.8,4.7,15.4,4.4,15.9,4.4z"/>
		<path id="XMLID_3_" class="st0" d="M15.9,4.6l-0.7,0.5C14.8,5.4,14.6,6,15,6.5L26.8,24c0.3,0.5,0.9,0.6,1.4,0.3l0.7-0.5
			c0.5-0.3,0.6-0.9,0.3-1.4L17.3,4.9C16.9,4.4,16.3,4.3,15.9,4.6z"/>
		<path id="XMLID_4_" class="st0" d="M39.6,4.4l-0.8,0.1c-0.5,0.1-0.9,0.6-0.8,1.2l4,23.1c0.1,0.5,0.6,0.9,1.2,0.8l0.8-0.1
			c0.5-0.1,0.9-0.6,0.8-1.2l-4-23.1C40.6,4.7,40.1,4.4,39.6,4.4z"/>
		<path id="XMLID_5_" class="st0" d="M39.6,4.6l0.7,0.5c0.5,0.3,0.6,0.9,0.3,1.4L28.6,24c-0.3,0.5-0.9,0.6-1.4,0.3l-0.7-0.5
			c-0.5-0.3-0.6-0.9-0.3-1.4L38.2,4.9C38.5,4.4,39.1,4.3,39.6,4.6z"/>
	</g>
	<g id="XMLID_6_">
		<path id="XMLID_10_" class="st1" d="M21.1,0.3l0.4,0.1c0.3,0,0.5,0.3,0.4,0.6l-3,15.7c-0.1,0.3-0.3,0.5-0.6,0.4L17.9,17
			c-0.3,0-0.5-0.3-0.4-0.6l3-15.7C20.5,0.4,20.8,0.2,21.1,0.3z"/>
		<path id="XMLID_9_" class="st1" d="M21.1,0.4l-0.4,0.2c-0.2,0.2-0.3,0.5-0.1,0.7l6.4,8.8c0.2,0.2,0.5,0.3,0.8,0.1l0.4-0.2
			c0.2-0.2,0.3-0.5,0.1-0.7l-6.4-8.8C21.7,0.3,21.3,0.2,21.1,0.4z"/>
		<path id="XMLID_8_" class="st1" d="M33.9,0.3l-0.4,0.1c-0.3,0-0.5,0.3-0.4,0.6l3,15.7c0.1,0.3,0.3,0.5,0.6,0.4L37,17
			c0.3,0,0.5-0.3,0.4-0.6l-3-15.7C34.5,0.4,34.2,0.2,33.9,0.3z"/>
		<path id="XMLID_7_" class="st1" d="M33.9,0.4l0.4,0.2c0.2,0.2,0.3,0.5,0.1,0.7L28,10.1c-0.2,0.2-0.5,0.3-0.8,0.1L26.9,10
			c-0.2-0.2-0.3-0.5-0.1-0.7l6.4-8.8C33.3,0.3,33.7,0.2,33.9,0.4z"/>
	</g>
</g>
</svg>
