<?xml version="1.0" encoding="utf-8"?>
<!-- Generator: Adobe Illustrator 19.0.0, SVG Export Plug-In . SVG Version: 6.00 Build 0)  -->
<svg version="1.1" id="Layer_1" xmlns="http://www.w3.org/2000/svg" xmlns:xlink="http://www.w3.org/1999/xlink" x="0px" y="0px"
	 viewBox="0 0 90 30" style="enable-background:new 0 0 90 30;" xml:space="preserve">
<style type="text/css">
	.st0{fill:#6167AF;}
</style>
<g id="XMLID_9_">
	<polyline id="XMLID_1_" class="st0" points="19.8,2.9 24,4.8 25.6,9 23.8,13.2 19.5,14.8 15.3,13 13.7,8.8 15.5,4.6 19.8,2.9 	"/>
	<polygon id="XMLID_2_" class="st0" points="35.7,13.4 31.4,15.1 27.3,13.2 25.6,9 27.4,4.8 31.7,3.2 35.9,5 37.5,9.3 	"/>
	<polygon id="XMLID_3_" class="st0" points="23.6,26.1 19.3,27.8 15.2,25.9 13.5,20.7 15.3,16.5 19.6,14.8 23.8,16.7 25.4,20.9 	"/>
	<polygon id="XMLID_4_" class="st0" points="35.5,26.3 31.2,28 27.1,26.2 25.4,20.9 27.3,16.7 31.5,15.1 35.7,16.9 37.3,21.2 	"/>
</g>
<polyline id="XMLID_8_" class="st0" points="48.8,3.9 53,5.8 54.6,10 52.8,14.2 48.5,15.8 44.3,14 42.7,9.8 44.5,5.6 48.8,3.9 "/>
<polygon id="XMLID_7_" class="st0" points="64.7,14.4 60.4,16.1 56.3,14.2 54.6,10 56.4,5.8 60.7,4.2 64.9,6 66.5,10.3 "/>
<polygon id="XMLID_6_" class="st0" points="52.6,26.1 48.3,27.8 44.2,25.9 42.5,21.7 44.3,17.5 48.6,15.8 52.8,17.7 54.4,21.9 "/>
<polygon id="XMLID_5_" class="st0" points="64.5,26.3 60.2,28 56.1,26.2 54.4,21.9 56.3,17.7 60.5,16.1 64.7,17.9 66.3,22.2 "/>
</svg>
